<svg xmlns="http://www.w3.org/2000/svg" viewBox="0 0 800 450" width="800" height="450" role="img">
  <defs>
    <linearGradient id="wall" x1="0" y1="0" x2="0" y2="1">
      <stop offset="0" stop-color="#eef3f2"/>
      <stop offset="1" stop-color="#ffffff"/>
    </linearGradient>
    <pattern id="hatch" width="8" height="8" patternUnits="userSpaceOnUse" patternTransform="rotate(45)">
      <rect width="8" height="8" fill="none"/>
      <line x1="0" y1="0" x2="0" y2="8" stroke="#2f6b63" stroke-opacity=".13" stroke-width="3"/>
    </pattern>
  </defs>
  <rect width="800" height="450" fill="url(#wall)"/>
  <rect x="0" y="300" width="800" height="150" fill="#2f6b63" fill-opacity=".07"/>
  <rect x="60" y="52" width="330" height="180" rx="4" fill="#ffffff" stroke="#2f6b63" stroke-opacity=".35"/>
  <rect x="72" y="64" width="306" height="156" rx="2" fill="url(#hatch)"/>
  <text x="225" y="150" text-anchor="middle" font-family="Segoe UI, Arial, sans-serif"
        font-size="13" fill="#2f6b63" fill-opacity=".55">PRESENTATION SCREEN</text>
  <rect x="440" y="90" width="300" height="14" rx="3" fill="#2f6b63" fill-opacity=".30"/>
  <rect x="470" y="104" width="240" height="120" rx="3" fill="#2f6b63" fill-opacity=".14"/>
  <text x="590" y="172" text-anchor="middle" font-family="Segoe UI, Arial, sans-serif"
        font-size="12" fill="#2f6b63" fill-opacity=".55">FRONT BENCH</text>
  <rect x="60" y="252" width="680" height="6" rx="3" fill="#2f6b63" fill-opacity=".22"/>
    <rect x="70" y="278" width="46" height="14" rx="3" fill="#2f6b63" fill-opacity="0.20"/>
    <rect x="132" y="278" width="46" height="14" rx="3" fill="#2f6b63" fill-opacity="0.20"/>
    <rect x="194" y="278" width="46" height="14" rx="3" fill="#2f6b63" fill-opacity="0.20"/>
    <rect x="256" y="278" width="46" height="14" rx="3" fill="#2f6b63" fill-opacity="0.20"/>
    <rect x="318" y="278" width="46" height="14" rx="3" fill="#2f6b63" fill-opacity="0.20"/>
    <rect x="380" y="278" width="46" height="14" rx="3" fill="#2f6b63" fill-opacity="0.20"/>
    <rect x="442" y="278" width="46" height="14" rx="3" fill="#2f6b63" fill-opacity="0.20"/>
    <rect x="504" y="278" width="46" height="14" rx="3" fill="#2f6b63" fill-opacity="0.20"/>
    <rect x="566" y="278" width="46" height="14" rx="3" fill="#2f6b63" fill-opacity="0.20"/>
    <rect x="628" y="278" width="46" height="14" rx="3" fill="#2f6b63" fill-opacity="0.20"/>
    <rect x="690" y="278" width="46" height="14" rx="3" fill="#2f6b63" fill-opacity="0.20"/>
    <rect x="81" y="312" width="42" height="13" rx="3" fill="#2f6b63" fill-opacity="0.27"/>
    <rect x="143" y="312" width="42" height="13" rx="3" fill="#2f6b63" fill-opacity="0.27"/>
    <rect x="205" y="312" width="42" height="13" rx="3" fill="#2f6b63" fill-opacity="0.27"/>
    <rect x="267" y="312" width="42" height="13" rx="3" fill="#2f6b63" fill-opacity="0.27"/>
    <rect x="329" y="312" width="42" height="13" rx="3" fill="#2f6b63" fill-opacity="0.27"/>
    <rect x="391" y="312" width="42" height="13" rx="3" fill="#2f6b63" fill-opacity="0.27"/>
    <rect x="453" y="312" width="42" height="13" rx="3" fill="#2f6b63" fill-opacity="0.27"/>
    <rect x="515" y="312" width="42" height="13" rx="3" fill="#2f6b63" fill-opacity="0.27"/>
    <rect x="577" y="312" width="42" height="13" rx="3" fill="#2f6b63" fill-opacity="0.27"/>
    <rect x="639" y="312" width="42" height="13" rx="3" fill="#2f6b63" fill-opacity="0.27"/>
    <rect x="701" y="312" width="42" height="13" rx="3" fill="#2f6b63" fill-opacity="0.27"/>
    <rect x="92" y="346" width="38" height="12" rx="3" fill="#2f6b63" fill-opacity="0.34"/>
    <rect x="154" y="346" width="38" height="12" rx="3" fill="#2f6b63" fill-opacity="0.34"/>
    <rect x="216" y="346" width="38" height="12" rx="3" fill="#2f6b63" fill-opacity="0.34"/>
    <rect x="278" y="346" width="38" height="12" rx="3" fill="#2f6b63" fill-opacity="0.34"/>
    <rect x="340" y="346" width="38" height="12" rx="3" fill="#2f6b63" fill-opacity="0.34"/>
    <rect x="402" y="346" width="38" height="12" rx="3" fill="#2f6b63" fill-opacity="0.34"/>
    <rect x="464" y="346" width="38" height="12" rx="3" fill="#2f6b63" fill-opacity="0.34"/>
    <rect x="526" y="346" width="38" height="12" rx="3" fill="#2f6b63" fill-opacity="0.34"/>
    <rect x="588" y="346" width="38" height="12" rx="3" fill="#2f6b63" fill-opacity="0.34"/>
    <rect x="650" y="346" width="38" height="12" rx="3" fill="#2f6b63" fill-opacity="0.34"/>
    <rect x="712" y="346" width="38" height="12" rx="3" fill="#2f6b63" fill-opacity="0.34"/>
  <rect x="0" y="404" width="800" height="46" fill="#2f6b63" fill-opacity=".92"/>
  <text x="24" y="432" font-family="Georgia, serif" font-size="19" fill="#ffffff">Discussion Room 1</text>
  <text x="776" y="432" text-anchor="end" font-family="Segoe UI, Arial, sans-serif"
        font-size="12" fill="#ffffff" fill-opacity=".85" letter-spacing="1.5">PLACEHOLDER IMAGE · AIKOL-DR-01 · VIEW 1</text>
</svg>
