<svg xmlns="http://www.w3.org/2000/svg" viewBox="0 0 800 450" width="800" height="450" role="img">
  <defs>
    <linearGradient id="wall" x1="0" y1="0" x2="0" y2="1">
      <stop offset="0" stop-color="#edf0f4"/>
      <stop offset="1" stop-color="#ffffff"/>
    </linearGradient>
    <pattern id="hatch" width="8" height="8" patternUnits="userSpaceOnUse" patternTransform="rotate(45)">
      <rect width="8" height="8" fill="none"/>
      <line x1="0" y1="0" x2="0" y2="8" stroke="#1f4e79" stroke-opacity=".13" stroke-width="3"/>
    </pattern>
  </defs>
  <rect width="800" height="450" fill="url(#wall)"/>
  <rect x="0" y="322" width="800" height="128" fill="#1f4e79" fill-opacity=".07"/>
  <line x1="0" y1="322" x2="800" y2="322" stroke="#1f4e79" stroke-opacity=".25" stroke-width="2"/>
  <rect x="110" y="202" width="580" height="86" rx="26"
        fill="#1f4e79" fill-opacity=".22" stroke="#1f4e79" stroke-opacity=".45"/>
  <path d="M 214 202 q 42 -78 151 -78
           q 127 0 151 78 Z"
        fill="#1f4e79" fill-opacity=".16" stroke="#1f4e79" stroke-opacity=".4"/>
  <rect x="245" y="142" width="103" height="50" rx="5"
        fill="#ffffff" fill-opacity=".55"/>
  <rect x="371" y="142" width="97" height="50" rx="5"
        fill="#ffffff" fill-opacity=".55"/>
  <circle cx="238" cy="288" r="34" fill="#ffffff"
        stroke="#1f4e79" stroke-opacity=".5" stroke-width="3"/>
  <circle cx="238" cy="288" r="14" fill="#1f4e79" fill-opacity=".3"/>
  <circle cx="568" cy="288" r="34" fill="#ffffff"
        stroke="#1f4e79" stroke-opacity=".5" stroke-width="3"/>
  <circle cx="568" cy="288" r="14" fill="#1f4e79" fill-opacity=".3"/>
  <text x="400" y="66" text-anchor="middle" font-family="Georgia, serif" font-size="21"
        fill="#1f4e79">Kulliyyah Car 1</text>
  <text x="400" y="376" text-anchor="middle" font-family="Segoe UI, Arial, sans-serif"
        font-size="12" fill="#1f4e79" fill-opacity=".55" letter-spacing="1.5">SIDE PROFILE - NOT AN ACTUAL VEHICLE</text>
  <rect x="0" y="404" width="800" height="46" fill="#1f4e79" fill-opacity=".92"/>
  <text x="24" y="432" font-family="Georgia, serif" font-size="19" fill="#ffffff">Kulliyyah Car 1</text>
  <text x="776" y="432" text-anchor="end" font-family="Segoe UI, Arial, sans-serif"
        font-size="12" fill="#ffffff" fill-opacity=".85" letter-spacing="1.5">PLACEHOLDER IMAGE · AIKOL-CAR-01 · VIEW 1</text>
</svg>
